<svg version="1.1" id="Layer_1" xmlns="http://www.w3.org/2000/svg" xmlns:xlink="http://www.w3.org/1999/xlink" x="0px" y="0px"
	 width="100%" viewBox="0 0 1024 560" enable-background="new 0 0 1024 560" xml:space="preserve">
<path fill="#000000" opacity="1.000000" stroke="none" 
	d="
M554.899536,345.124115 
	C550.080444,337.908478 540.695251,336.022858 534.075623,340.753052 
	C532.003113,342.234009 529.910767,342.579865 528.242554,340.732635 
	C526.281067,338.560608 523.964600,338.527924 521.438843,338.524445 
	C513.276611,338.513245 505.113281,338.337616 496.952698,338.430603 
	C491.520477,338.492523 486.253937,340.197968 480.619629,338.563171 
	C474.036774,336.653137 469.662323,341.711823 467.202240,346.294098 
	C462.211975,355.589142 456.782745,364.860779 454.719971,375.488068 
	C454.367126,377.306000 453.024780,378.680145 451.080200,377.869385 
	C443.657837,374.774750 435.942322,376.831879 428.383026,376.470581 
	C423.564331,376.240204 418.503998,375.213287 414.029236,378.848297 
	C412.275391,380.272980 409.757416,379.149323 408.485535,377.007721 
	C407.085724,374.650635 407.470612,372.211548 409.839661,370.937042 
	C412.756470,369.367859 413.985657,366.837738 415.274506,364.098511 
	C421.443146,350.988495 428.458862,338.206451 433.564087,324.699585 
	C435.761658,318.885590 437.508759,313.564941 441.350464,308.336700 
	C446.186188,301.755737 448.759399,293.498260 452.202240,285.915741 
	C453.335388,283.420074 454.905762,281.006500 453.210266,277.925507 
	C452.346924,276.356659 453.435211,274.308441 455.038727,273.757446 
	C458.935669,272.418274 459.926086,268.975830 461.361633,265.876251 
	C470.528870,246.083038 479.780426,226.326004 488.640350,206.395294 
	C490.827637,201.474884 493.410950,199.427429 499.028137,199.536102 
	C509.485291,199.738388 519.991577,200.508530 530.445557,199.083023 
	C532.336182,198.825226 533.634766,199.879501 534.162292,201.712448 
	C538.469727,216.679184 546.645020,229.956894 552.739929,244.143814 
	C554.456116,248.138580 555.623657,252.723831 560.564148,254.535233 
	C561.974915,255.052505 562.381165,256.895599 562.172241,258.472351 
	C560.970825,267.539703 567.298157,273.878204 570.448792,281.361877 
	C570.950378,282.553314 572.404053,282.488129 573.427185,282.993591 
	C574.839722,283.691437 575.995483,284.800354 576.043030,286.410431 
	C576.505981,302.073273 587.204468,313.755951 592.044861,327.710236 
	C592.579651,329.252167 594.050476,329.841736 595.386292,330.542053 
	C597.516418,331.658813 598.971436,333.581635 598.230042,335.825043 
	C597.138000,339.129059 598.544434,341.619598 599.832458,344.303925 
	C602.786255,350.460144 605.680237,356.645203 608.655090,362.791138 
	C610.225769,366.036133 611.441345,369.367889 615.360474,371.008423 
	C617.928162,372.083221 618.459839,375.018585 616.871094,377.460938 
	C615.267334,379.926300 612.573181,380.474243 610.372131,378.564880 
	C607.795837,376.330109 604.977173,376.348511 601.976318,376.361481 
	C594.479004,376.393829 586.981384,376.365540 579.484070,376.397705 
	C577.189087,376.407532 574.995667,376.280792 572.803223,377.731903 
	C570.203979,379.452240 568.304016,378.051025 567.811523,375.159637 
	C566.921265,369.933624 565.566101,365.166504 560.000366,362.842316 
	C558.434692,362.188507 557.307678,360.255615 557.897339,358.652710 
	C559.776855,353.543976 556.678711,349.698883 554.899536,345.124115 
M522.239624,275.174133 
	C518.746033,267.708313 513.526550,261.141663 511.933044,252.686005 
	C511.400452,252.804703 510.867889,252.923386 510.335297,253.042068 
	C503.416077,268.253693 496.496857,283.465332 489.524658,298.793427 
	C490.573853,299.226379 491.013611,299.571655 491.445587,299.562134 
	C503.426361,299.299133 515.407410,299.036224 527.386047,298.689148 
	C532.145935,298.551270 531.252319,295.514771 530.074463,292.733459 
	C527.672974,287.063019 525.090576,281.469177 522.239624,275.174133 
M527.287109,233.640366 
	C526.879272,235.927109 526.419983,238.206116 526.074402,240.502243 
	C525.381104,245.108215 527.126160,247.409653 531.627747,247.885925 
	C532.947327,248.025528 534.275574,248.084412 535.600281,248.173615 
	C540.019226,248.471176 541.264343,246.934311 540.171021,242.532761 
	C539.291199,238.990677 538.439270,235.441330 537.520935,231.909241 
	C535.766296,225.160446 533.973145,218.421631 532.195984,211.678665 
	C531.883362,211.724258 531.570740,211.769836 531.258118,211.815430 
	C529.974854,218.809891 528.691589,225.804352 527.287109,233.640366 
M577.978760,360.623566 
	C586.438721,363.649994 594.898682,366.676453 603.358582,369.702911 
	C603.550232,369.345642 603.741821,368.988373 603.933411,368.631104 
	C594.276550,359.570160 584.619690,350.509186 574.176575,340.710510 
	C572.621277,348.734039 572.270996,354.931702 577.978760,360.623566 
M577.631897,339.108887 
	C587.323792,348.633972 597.015747,358.159088 606.707642,367.684174 
	C605.573364,363.530151 603.935791,359.904022 602.244080,356.303314 
	C600.480286,352.549255 598.568787,348.861938 596.891846,345.070282 
	C593.776855,338.027100 585.641968,334.225800 577.631897,339.108887 
M466.422668,333.979462 
	C470.356476,333.489014 474.222778,332.881866 476.091309,328.566650 
	C462.309967,323.409027 452.706604,327.179260 444.440186,342.353424 
	C452.191833,339.315735 460.431671,341.238922 466.422668,333.979462 
M421.607727,371.349884 
	C421.370941,371.574677 421.029022,371.763245 420.934692,372.037048 
	C420.873047,372.215942 421.169739,372.734406 421.307312,372.734924 
	C430.334229,372.769043 439.361267,372.765747 448.930817,372.765747 
	C447.746643,367.827820 446.473755,363.384613 443.840942,358.954559 
	C436.281952,363.177734 429.210419,367.128540 421.607727,371.349884 
M432.942871,349.342346 
	C438.020782,341.817963 440.183502,333.714905 437.952728,323.757263 
	C431.862915,336.853302 425.551331,348.836884 421.492828,361.960419 
	C425.140594,357.926239 428.788391,353.892090 432.942871,349.342346 
M586.307068,322.953918 
	C582.257751,314.184052 578.208374,305.414154 573.764832,295.790588 
	C571.319153,310.486328 575.761475,320.895630 588.521667,327.994659 
	C587.748291,326.208832 587.179077,324.894470 586.307068,322.953918 
M573.095886,367.957428 
	C573.114319,370.544586 572.299561,373.445801 576.720154,373.351715 
	C585.240295,373.170349 593.767029,373.298798 602.291016,373.298798 
	C594.622803,369.889587 586.858643,367.140381 579.082581,364.425171 
	C576.239319,363.432373 574.253784,364.384979 573.095886,367.957428 
M558.845398,320.540222 
	C560.001038,321.424957 560.696838,322.906403 562.272522,323.228607 
	C567.875610,319.070282 568.214355,315.757477 563.500549,311.332764 
	C562.416992,310.315643 561.287903,309.347229 560.185425,308.350128 
	C558.145752,306.505493 555.839539,305.432434 553.692688,307.826233 
	C551.742798,310.000458 551.634888,312.681885 553.574646,315.043854 
	C555.037659,316.825348 556.749207,318.402802 558.845398,320.540222 
M466.166595,306.794434 
	C467.828339,305.445312 468.943939,303.671478 468.053253,301.630890 
	C465.568634,295.938660 463.225342,290.153961 459.166565,283.881470 
	C459.049225,292.954224 457.582123,300.828491 458.977600,308.837189 
	C461.381622,309.169617 463.430298,308.030975 466.166595,306.794434 
M473.546417,324.483459 
	C475.463440,324.546661 478.383301,325.204803 478.023529,322.332977 
	C477.556305,318.603363 475.406403,315.236847 473.093018,312.196777 
	C472.309723,311.167480 470.962341,311.229156 469.955109,312.064911 
	C466.570038,314.873779 464.030914,318.353302 461.230591,321.961426 
	C465.493042,323.863861 469.238403,323.499268 473.546417,324.483459 
M427.448730,359.911224 
	C426.045776,361.983734 423.622772,363.354095 422.528107,366.899994 
	C429.571899,363.851044 435.317261,360.350220 441.027618,356.839233 
	C444.094330,354.953705 442.360718,352.232819 441.020935,350.375427 
	C439.683044,348.520630 437.465149,348.787079 435.853851,350.510742 
	C433.144348,353.409149 430.543427,356.409088 427.448730,359.911224 
M516.933411,238.387787 
	C516.437622,239.622345 515.906860,240.844284 515.455688,242.094925 
	C514.978516,243.417343 513.731934,244.845047 515.682556,246.005203 
	C517.192017,246.902924 518.581543,246.522964 519.755798,245.339325 
	C520.678711,244.409103 522.072998,243.514511 522.307983,242.403259 
	C523.957214,234.604050 525.359741,226.752701 526.841125,218.918015 
	C526.508789,218.838181 526.176392,218.758347 525.844055,218.678497 
	C522.981995,225.021255 520.119934,231.363998 516.933411,238.387787 
M567.630127,293.380951 
	C565.481140,295.429565 563.272461,297.420227 561.204773,299.547882 
	C559.902405,300.888062 558.685059,302.653534 560.340393,304.329071 
	C562.909790,306.929962 565.318298,309.858734 569.698486,311.538666 
	C570.278198,305.288300 570.093689,299.596497 569.711548,293.906219 
	C569.664673,293.208588 568.960083,292.900177 567.630127,293.380951 
M548.928406,243.512787 
	C545.351440,235.798035 541.774414,228.083282 538.197388,220.368530 
	C541.777710,231.762100 540.302551,245.480637 553.548462,253.949799 
	C551.727783,249.861603 550.469482,247.036270 548.928406,243.512787 
M559.405212,338.276276 
	C557.671875,338.872284 556.181580,340.089569 556.891357,341.886719 
	C558.413269,345.740723 559.498657,349.892151 562.611450,353.415558 
	C565.185791,350.184692 566.090820,346.619598 567.658264,343.408081 
	C569.449524,339.737976 567.879272,338.130981 564.145081,338.048187 
	C562.827576,338.018982 561.507080,338.120850 559.405212,338.276276 
M585.368103,330.023193 
	C581.668823,326.936981 578.348511,323.326599 573.206543,320.645416 
	C573.953735,325.473938 571.210632,330.170135 575.363892,333.037201 
	C579.224670,335.702362 583.649597,333.606812 589.371887,333.350739 
	C587.383118,331.697296 586.633423,331.073975 585.368103,330.023193 
M470.075623,298.446472 
	C473.543518,303.317932 476.519623,303.858948 481.550629,300.048950 
	C476.193909,295.145233 471.116638,290.122894 464.531219,286.581940 
	C466.268555,290.316711 468.005920,294.051483 470.075623,298.446472 
M451.182739,327.668823 
	C452.675537,322.065216 447.851074,322.559418 444.954498,321.443115 
	C443.187317,320.762085 441.458221,321.616852 441.456299,323.763031 
	C441.452393,328.122528 441.658020,332.492554 442.941223,337.736298 
	C445.980438,334.095184 448.404297,331.191223 451.182739,327.668823 
M533.925964,258.765839 
	C539.446289,258.172791 544.966614,257.579742 551.179565,256.912262 
	C549.406311,254.868195 548.179749,254.009094 546.869080,254.529633 
	C543.453857,255.886002 541.258301,254.578537 538.494507,252.421509 
	C535.551208,250.124298 531.583801,250.499344 527.612183,252.054443 
	C529.235718,255.011215 530.082947,257.752747 533.925964,258.765839 
M451.495514,306.891815 
	C457.057800,301.183594 455.178406,293.951569 455.061584,286.967529 
	C451.475708,294.772400 447.889832,302.577271 444.043701,310.948669 
	C447.508911,310.472443 448.920044,308.374237 451.495514,306.891815 
M533.801575,291.459259 
	C536.959717,291.430817 537.420044,289.766968 537.104736,286.916016 
	C536.265076,279.323578 529.892944,276.502533 524.983521,272.287903 
	C527.192993,278.846344 529.601379,285.249695 533.801575,291.459259 
M502.946320,318.895691 
	C500.876709,321.841492 498.403748,324.534576 496.979340,327.899719 
	C502.066833,330.767853 511.055969,328.757050 514.146667,323.891907 
	C509.684692,324.610321 506.419891,323.589691 505.469330,318.804688 
	C505.298126,317.942871 504.207977,317.897095 502.946320,318.895691 
M461.566162,341.881165 
	C457.398926,341.796417 453.524048,343.306641 449.528961,344.135620 
	C443.831512,345.317902 442.899689,348.110138 446.802032,353.959808 
	C451.267120,349.413086 457.707916,347.690186 461.566162,341.881165 
M553.841858,319.689728 
	C551.949158,318.226776 550.929260,315.660156 548.172302,315.101471 
	C546.698181,316.917847 544.945190,318.455048 544.620056,321.641968 
	C549.256470,323.663605 553.982605,325.724365 559.879272,328.295532 
	C558.687866,323.665588 555.966675,322.328400 553.841858,319.689728 
M476.579010,310.765259 
	C477.334412,314.209930 479.255890,317.112183 481.000214,320.081085 
	C481.843567,321.516449 483.282501,322.043365 484.849426,321.353638 
	C486.216858,320.751678 486.486450,319.461212 486.481171,318.039551 
	C486.456970,311.487610 484.028107,309.489532 476.579010,310.765259 
M537.952576,274.113068 
	C535.956543,274.485199 533.958618,274.016083 533.286499,272.152557 
	C531.908630,268.332550 528.592651,268.016876 524.938416,266.656158 
	C528.656311,271.657196 533.260559,274.703979 537.161560,278.467651 
	C538.910400,280.154877 541.133728,279.955780 543.139099,278.849579 
	C544.004761,278.372070 544.624146,277.187103 544.032898,276.268036 
	C542.821472,274.384949 541.218689,272.952606 537.952576,274.113068 
M548.867249,332.485748 
	C551.261536,332.152863 553.952942,333.209778 556.470642,330.867737 
	C552.372009,327.713776 547.756775,326.387024 543.561584,324.288452 
	C542.242615,323.628662 541.327454,324.361816 540.714722,325.469391 
	C540.129272,326.527618 540.586426,327.431763 541.491272,328.017975 
	C543.706604,329.453094 545.973511,330.808685 548.867249,332.485748 
M559.402832,278.676941 
	C560.697693,281.979401 562.689514,284.176392 567.041443,283.515991 
	C565.377197,277.643829 562.493774,272.741272 559.359192,267.697662 
	C559.359192,271.081451 559.359192,274.465240 559.402832,278.676941 
M518.598022,306.379761 
	C520.922363,306.156952 522.962036,305.478455 524.465027,302.649292 
	C516.179199,302.649292 508.443115,302.649292 499.883636,302.649292 
	C503.324005,304.740082 506.365295,305.130737 509.151764,304.295624 
	C512.621216,303.255890 515.260986,304.322571 518.598022,306.379761 
M498.442413,319.284332 
	C498.246613,316.627258 496.176636,316.866486 494.865234,317.593323 
	C492.154358,319.095703 489.486420,320.931091 489.368256,324.587708 
	C489.330353,325.759918 489.358032,327.001953 490.724945,327.456207 
	C491.932892,327.857574 493.075531,327.457001 493.803253,326.449005 
	C495.340759,324.319336 496.767487,322.109711 498.442413,319.284332 
M537.193420,318.013733 
	C539.180786,318.950592 541.201782,320.075623 542.703308,317.308289 
	C543.523743,315.796173 545.574036,314.434479 544.144287,312.502167 
	C542.629028,310.454315 540.476257,312.040192 538.596985,312.146729 
	C538.267639,312.165405 537.942261,312.249451 537.612854,312.275299 
	C536.225342,312.384308 534.957214,312.685944 534.563110,314.280151 
	C534.122742,316.061554 535.003601,317.108154 537.193420,318.013733 
M549.979004,275.831451 
	C551.688721,277.347290 553.425476,278.814362 556.413513,279.537415 
	C556.265564,274.548950 555.623169,270.007416 556.046326,265.379761 
	C553.271545,268.336334 550.891296,271.407379 549.979004,275.831451 
M544.457764,266.938538 
	C542.409912,268.130066 541.290100,269.541870 543.599609,271.502350 
	C545.562195,273.168335 547.231079,272.687073 548.486389,270.553925 
	C549.731262,268.438385 551.571228,266.571014 552.033813,263.244293 
	C549.210938,264.602112 547.143555,265.596558 544.457764,266.938538 
M520.345764,333.602661 
	C521.403992,333.513550 522.594360,334.272675 523.512512,333.147400 
	C518.563843,326.857819 517.434509,326.653748 510.923737,331.198700 
	C514.025757,332.013306 516.826050,332.748657 520.345764,333.602661 
M545.489319,263.027710 
	C546.822327,262.450409 548.229248,261.967865 549.846802,259.730896 
	C544.341248,261.752136 539.480469,260.643524 534.045105,262.277771 
	C538.149170,265.821503 541.444702,265.486694 545.489319,263.027710 
M553.410095,291.030823 
	C555.364502,289.383942 554.181702,287.794922 552.813293,287.039917 
	C550.500488,285.763855 547.914368,285.461151 545.397644,287.438599 
	C546.855042,291.001831 548.717773,293.281158 553.410095,291.030823 
M543.751892,335.553131 
	C544.477051,335.378845 545.429871,335.786011 545.962158,334.421417 
	C544.061829,333.246887 542.130676,332.025879 540.171448,330.851776 
	C538.819580,330.041687 537.621399,330.326019 536.666565,331.552704 
	C536.053467,332.340454 535.389954,333.197479 535.731689,334.254150 
	C536.179810,335.639984 537.452087,335.640656 538.619812,335.652466 
	C540.112976,335.667572 541.606812,335.616516 543.751892,335.553131 
M545.909790,306.164490 
	C547.305786,305.768646 548.701721,305.372803 550.576782,304.841125 
	C548.208862,299.534607 543.672546,301.890167 539.989868,301.448425 
	C541.696594,303.218567 542.681091,305.645050 545.909790,306.164490 
M449.251862,355.853180 
	C445.388733,359.532104 449.405212,361.923767 450.386261,364.869537 
	C452.261536,362.555847 452.488495,359.974915 452.720734,357.419403 
	C452.932800,355.085693 451.914642,354.407379 449.251862,355.853180 
M454.592010,318.126862 
	C454.565125,316.878998 455.156921,314.879578 453.361725,314.934235 
	C450.707550,315.014984 448.018494,315.785126 445.337341,318.207794 
	C448.880463,319.068481 451.359985,322.423798 454.592010,318.126862 
M523.073853,319.519165 
	C523.212524,319.432678 523.412354,319.375732 523.472473,319.251282 
	C523.532593,319.126801 523.505737,318.826813 523.426880,318.788300 
	C521.353760,317.775238 519.578064,316.493988 517.977844,314.726898 
	C516.168152,312.728516 513.725037,312.050140 511.016876,313.859833 
	C514.666870,316.671875 518.067078,319.202728 523.073853,319.519165 
M478.201324,335.657623 
	C480.207336,335.324860 482.501373,336.468781 484.217010,334.601562 
	C484.097534,331.916748 482.270538,330.945679 480.204803,331.014008 
	C477.732666,331.095795 476.435699,333.038666 475.076141,335.308624 
	C476.247345,335.469177 476.883575,335.556427 478.201324,335.657623 
M529.652039,330.050934 
	C529.592896,328.584106 530.746521,326.835419 528.237244,326.052399 
	C525.980286,325.348114 523.946716,324.673431 522.050354,327.206360 
	C523.524475,328.492828 524.818359,329.722656 526.220520,330.813232 
	C527.307312,331.658447 528.572632,333.160309 529.652039,330.050934 
M459.122467,312.765839 
	C457.714691,314.649780 457.839478,316.592957 458.758575,319.102997 
	C461.670410,316.520355 464.393829,314.427185 466.028931,310.431122 
	C463.468628,311.232849 461.607056,311.815796 459.122467,312.765839 
M534.857300,308.044830 
	C537.046631,310.968872 539.005127,308.578064 541.498474,308.141785 
	C539.861755,305.609589 538.356567,303.815796 535.646606,302.685120 
	C535.328796,304.522186 535.080505,305.957397 534.857300,308.044830 
M461.438202,350.426147 
	C461.548370,349.414520 462.827637,348.548035 461.878326,347.345978 
	C457.765015,350.619690 455.842346,355.258270 456.947754,359.580292 
	C459.145416,356.978516 459.528046,353.686127 461.438202,350.426147 
M523.968567,259.692017 
	C525.141907,259.416656 526.672302,260.046082 527.356628,258.324158 
	C526.602051,256.530640 525.907532,254.450516 523.544006,254.493469 
	C521.819824,254.524780 521.346924,256.291718 520.977966,257.705780 
	C520.424561,259.826782 522.029541,259.648621 523.968567,259.692017 
M509.231415,334.281464 
	C505.647583,333.214020 502.093994,332.409668 498.801483,335.474060 
	C503.887665,335.474060 508.791962,335.474060 515.093262,335.474060 
	C512.497620,334.913208 511.234741,334.640320 509.231415,334.281464 
M531.521301,308.894653 
	C531.683350,307.453217 532.175476,305.991241 531.036194,304.168640 
	C529.760437,306.544434 527.323425,306.956879 525.067444,307.907288 
	C527.014160,310.235840 528.725891,311.651886 531.521301,308.894653 
M569.944336,353.120300 
	C569.944336,350.982147 569.944336,348.843994 569.944336,346.705872 
	C569.065613,350.166809 564.779053,352.987518 567.377319,357.470947 
	C569.362915,356.444733 569.741882,355.233643 569.944336,353.120300 
M570.021179,324.966003 
	C569.908203,324.034088 570.283875,322.936859 568.733887,322.130615 
	C567.386292,323.241425 565.434509,324.312561 565.737854,326.475800 
	C565.974609,328.163849 567.236877,329.717834 569.698303,329.616058 
	C569.806152,328.242004 569.907471,326.951538 570.021179,324.966003 
M557.963928,293.385162 
	C557.293213,294.739075 556.676392,296.086761 558.514648,297.322601 
	C560.659790,295.905853 562.565125,294.306458 563.959351,291.794037 
	C561.646790,291.307098 560.083008,292.287231 557.963928,293.385162 
M541.005188,290.031372 
	C539.967773,291.598877 538.491150,293.013702 538.920105,295.313751 
	C541.189148,295.014099 543.102295,294.659729 544.702698,293.240356 
	C544.247986,291.480438 543.431519,290.158905 541.005188,290.031372 
M550.075256,283.027527 
	C550.960938,282.843567 552.084351,283.304993 552.714783,281.882996 
	C551.336365,280.417114 549.886963,278.789856 547.624817,279.067200 
	C546.532349,279.201111 545.749573,280.636261 546.068481,281.774506 
	C546.525696,283.406189 548.172546,282.871429 550.075256,283.027527 
M517.464844,255.742706 
	C519.455261,254.447983 519.710999,252.643448 518.586670,250.765289 
	C517.701904,249.287430 516.283875,249.225922 514.664490,250.255661 
	C515.098572,252.169037 515.591614,254.014572 517.464844,255.742706 
M481.390656,307.446533 
	C482.500610,307.408173 483.706909,307.628174 484.693878,307.260040 
	C485.717865,306.878052 485.922760,305.541077 485.266510,304.778442 
	C483.491974,302.716278 481.611389,304.341888 480.094788,305.193878 
	C478.026001,306.356018 480.012146,306.718109 481.390656,307.446533 
z"/>
</svg>