<?xml version="1.0" encoding="UTF-8"?>
<svg width="32" height="32" version="1.1" viewBox="0 0 32 32" xmlns="http://www.w3.org/2000/svg">
 <rect width="32" height="32" rx="4" fill="#ffffff"/>
 <g transform="matrix(0.028, 0, 0, 0.028, 1, 5)">
   <path fill="#000000" opacity="1.000000" stroke="none" 
      d="M554.899536,345.124115 
      C550.080444,337.908478 540.695251,336.022858 534.075623,340.753052 
      C532.003113,342.234009 529.910767,342.579865 528.242554,340.732635 
      C526.281067,338.560608 523.964600,338.527924 521.438843,338.524445 
      C513.276611,338.513245 505.113281,338.337616 496.952698,338.430603 
      C491.520477,338.492523 486.253937,340.197968 480.619629,338.563171 
      C474.036774,336.653137 469.662323,341.711823 467.202240,346.294098 
      C462.211975,355.589142 456.782745,364.860779 454.719971,375.488068 
      C454.367126,377.306000 453.024780,378.680145 451.080200,377.869385 
      C443.657837,374.774750 435.942322,376.831879 428.383026,376.470581 
      C423.564331,376.240204 418.503998,375.213287 414.029236,378.848297 
      C412.275391,380.272980 409.757416,379.149323 408.485535,377.007721 
      C407.085724,374.650635 407.470612,372.211548 409.839661,370.937042 
      C412.756470,369.367859 413.985657,366.837738 415.274506,364.098511 
      C421.443146,350.988495 428.458862,338.206451 433.564087,324.699585 
      C435.761658,318.885590 437.508759,313.564941 441.350464,308.336700 
      C446.186188,301.755737 448.759399,293.498260 452.202240,285.915741 
      C453.335388,283.420074 454.905762,281.006500 453.210266,277.925507 
      C452.346924,276.356659 453.435211,274.308441 455.038727,273.757446 
      C458.935669,272.418274 459.926086,268.975830 461.361633,265.876251 
      C470.528870,246.083038 479.780426,226.326004 488.640350,206.395294 
      C490.827637,201.474884 493.410950,199.427429 499.028137,199.536102 
      C509.485291,199.738388 519.991577,200.508530 530.445557,199.083023 
      C532.336182,198.825226 533.634766,199.879501 534.162292,201.712448 
      C538.469727,216.679184 546.645020,229.956894 552.739929,244.143814 
      C554.456116,248.138580 555.623657,252.723831 560.564148,254.535233 
      C561.974915,255.052505 562.381165,256.895599 562.172241,258.472351 
      C560.970825,267.539703 567.298157,273.878204 570.448792,281.361877 
      C570.950378,282.553314 572.404053,282.488129 573.427185,282.993591 
      C574.839722,283.691437 575.995483,284.800354 576.043030,286.410431 
      C576.505981,302.073273 587.204468,313.755951 592.044861,327.710236 
      C592.579651,329.252167 594.050476,329.841736 595.386292,330.542053 
      C597.516418,331.658813 598.971436,333.581635 598.230042,335.825043 
      C597.138000,339.129059 598.544434,341.619598 599.832458,344.303925 
      C602.786255,350.460144 605.680237,356.645203 608.655090,362.791138 
      C610.225769,366.036133 611.441345,369.367889 615.360474,371.008423 
      C617.928162,372.083221 618.459839,375.018585 616.871094,377.460938 
      C615.267334,379.926300 612.573181,380.474243 610.372131,378.564880 
      C607.795837,376.330109 604.977173,376.348511 601.976318,376.361481 
      C594.479004,376.393829 586.981384,376.365540 579.484070,376.397705 
      C577.189087,376.407532 574.995667,376.280792 572.803223,377.731903 
      C570.203979,379.452240 568.304016,378.051025 567.811523,375.159637 
      C566.921265,369.933624 565.566101,365.166504 560.000366,362.842316 
      C558.434692,362.188507 557.307678,360.255615 557.897339,358.652710 
      C559.776855,353.543976 556.678711,349.698883 554.899536,345.124115" />
 </g>
</svg>